<svg id="Layer_1" data-name="Layer 1" xmlns="http://www.w3.org/2000/svg" viewBox="0 0 965 215"><defs><style>.cls-1,.cls-3{fill:#338fb8;}.cls-2{fill:#245c81;}.cls-3{font-size:196.94px;font-family:GothamMedium-Italic, Gotham Medium;font-style:italic;letter-spacing:0.03em;}.cls-4{letter-spacing:0.04em;}.cls-5{letter-spacing:0em;}</style></defs><path class="cls-1" d="M6.24,54.17A71.62,71.62,0,0,0,44.89,68.62,70.93,70.93,0,0,0,76.77,63.1c-2.5,26.61,3.94,43.78,7.4,51.32A151.31,151.31,0,0,0,111.44,155c17,17.6,32.43,24.48,30.85,27.89S125,182.2,115,179.65c-6.13-1.57-17-4.34-28-9.5-27.56-12.92-45.75-36-52.31-45a134.7,134.7,0,0,1-13.17-22.77A178.32,178.32,0,0,1,6.24,54.17Z"/><path class="cls-2" d="M91.26,49.31a226.53,226.53,0,0,0,24,17.41,231.28,231.28,0,0,0,32.18,16.91A172.58,172.58,0,0,0,101.75,136a163.38,163.38,0,0,0-17.07,44.83c-.46,2.91-1.25,7.39-2.51,12.8-2.78,11.91-4.22,17.85-6.82,18.47-5.58,1.34-14.55-19.42-18.69-31.49a122,122,0,0,1-6.9-30.82c-1-11.51-2.69-32.85,8.05-57.33A115.1,115.1,0,0,1,91.26,49.31Z"/><circle class="cls-1" cx="64.33" cy="26.46" r="22.85"/><text class="cls-3" transform="translate(170.23 176.57)">T<tspan class="cls-4" x="127.03" y="0">R</tspan><tspan class="cls-5" x="276.5" y="0">AINR</tspan></text></svg>