<svg id="Layer_1" data-name="Layer 1" xmlns="http://www.w3.org/2000/svg" viewBox="0 0 965 215"><defs><style>.cls-1{fill:#338fb8;}.cls-2{fill:#245c81;}</style></defs><path class="cls-1" d="M6.24,54.17A71.62,71.62,0,0,0,44.89,68.62,70.93,70.93,0,0,0,76.77,63.1c-2.5,26.61,3.94,43.78,7.4,51.32A151.31,151.31,0,0,0,111.44,155c17,17.6,32.43,24.48,30.85,27.89S125,182.2,115,179.65c-6.13-1.57-17-4.34-28-9.5-27.56-12.92-45.75-36-52.31-45a134.7,134.7,0,0,1-13.17-22.77A178.32,178.32,0,0,1,6.24,54.17Z"/><path class="cls-2" d="M91.26,49.31a226.53,226.53,0,0,0,24,17.41,231.28,231.28,0,0,0,32.18,16.91A172.58,172.58,0,0,0,101.75,136a163.38,163.38,0,0,0-17.07,44.83c-.46,2.91-1.25,7.39-2.51,12.8-2.78,11.91-4.22,17.85-6.82,18.47-5.58,1.34-14.55-19.42-18.69-31.49a122,122,0,0,1-6.9-30.82c-1-11.51-2.69-32.85,8.05-57.33A115.1,115.1,0,0,1,91.26,49.31Z"/><circle class="cls-1" cx="64.33" cy="26.46" r="22.85"/><path class="cls-1" d="M235.62,61.16H191.7l6.1-22.45H309.67l-6.11,22.45H259.84L228.72,176.57H204.5Z"/><path class="cls-1" d="M338,38.71h50q28.56,0,41.66,13.39,10,10,10,26a46.62,46.62,0,0,1-3.23,17.63,40.09,40.09,0,0,1-9.28,13.88,48.54,48.54,0,0,1-14.71,10.34,84.82,84.82,0,0,1-19.68,6.21l25.6,50.42H390.58L367,128.51H338.19l-12.8,48.06H301ZM375.25,107a63,63,0,0,0,19.3-2.66,31.05,31.05,0,0,0,13.19-7.82A22.68,22.68,0,0,0,414.64,80a18.07,18.07,0,0,0-4.93-12.66,20.77,20.77,0,0,0-9.06-5,50.07,50.07,0,0,0-14-1.68H356.54L343.94,107Z"/><path class="cls-1" d="M534.77,37.72H558l23.44,138.85H556.63l-5.32-33.29H486.13l-23.05,33.29H436.89Zm13.59,84.1L539.5,66.08l-38.6,55.74Z"/><path class="cls-1" d="M639.15,38.71h24.42l-37,137.86H602.12Z"/><path class="cls-1" d="M700.2,38.71h22.45l46.67,97.48,26.39-97.48h23.83l-37,137.86H762.23L714,76.32,687.2,176.57h-24Z"/><path class="cls-1" d="M855,38.71h50q28.54,0,41.66,13.39,10,10,10,26a46.62,46.62,0,0,1-3.23,17.63,40.09,40.09,0,0,1-9.28,13.88,48.59,48.59,0,0,1-14.72,10.34,84.82,84.82,0,0,1-19.68,6.21l25.6,50.42H907.55l-23.64-48.06H855.16l-12.8,48.06H817.94ZM892.21,107a63,63,0,0,0,19.31-2.66,31.05,31.05,0,0,0,13.19-7.82A22.71,22.71,0,0,0,931.6,80a18.06,18.06,0,0,0-4.92-12.66,20.77,20.77,0,0,0-9.06-5,50.17,50.17,0,0,0-14-1.68H873.51L860.9,107Z"/></svg>